<svg width="206" height="83" viewBox="0 0 206 83" fill="none" xmlns="http://www.w3.org/2000/svg">
<path d="M86.6943 60.5042V57.7327H87.4995V60.5042C87.4995 61.3356 87.9022 61.8899 88.7074 61.8899C88.8691 61.9023 89.0314 61.8785 89.1834 61.8203C89.3354 61.762 89.4735 61.6705 89.5881 61.5521C89.7028 61.4338 89.7913 61.2912 89.8478 61.1343C89.9042 60.9774 89.9272 60.8097 89.9152 60.6427V57.8713H90.7204V60.5042C90.7204 61.0554 90.5083 61.5841 90.1308 61.9739C89.7533 62.3637 89.2413 62.5827 88.7074 62.5827C88.1735 62.5827 87.6615 62.3637 87.2839 61.9739C86.9064 61.5841 86.6943 61.0554 86.6943 60.5042Z" fill="#BD1714"/>
<path d="M93.5387 57.8714H94.3439L96.7595 61.1971V57.8714H97.5648V62.5828H96.8937L94.3439 59.2571V62.5828H93.5387V57.8714Z" fill="#BD1714"/>
<path d="M100.651 57.8714H101.457V62.5828H100.651V57.8714Z" fill="#BD1714"/>
<path d="M104.141 57.8714H105.08L106.422 61.4742L107.764 57.8714H108.703L106.825 62.5828H106.154L104.141 57.8714Z" fill="#BD1714"/>
<path d="M111.253 57.8714H114.608V58.5642H112.059V59.8113H114.34V60.5042H112.059V61.8899H114.743V62.5828H111.253V57.8714Z" fill="#BD1714"/>
<path d="M117.561 57.8714H119.574C120.055 57.8383 120.532 57.9859 120.916 58.2871C121.047 58.4092 121.151 58.5591 121.22 58.7265C121.29 58.894 121.323 59.075 121.318 59.2571C121.352 59.5875 121.259 59.9185 121.058 60.178C120.857 60.4374 120.565 60.6045 120.245 60.6428L121.453 62.4442H120.513L119.44 60.7814H118.366V62.4442H117.561V57.8714ZM119.574 60.2271C120.111 60.2271 120.513 59.95 120.513 59.3957C120.513 58.8414 120.111 58.5642 119.574 58.5642H118.366V60.0885H119.574V60.2271Z" fill="#BD1714"/>
<path d="M123.869 61.8899L124.405 61.3356C124.603 61.5255 124.835 61.6724 125.089 61.7676C125.343 61.8628 125.612 61.9044 125.882 61.8899C126.418 61.8899 126.687 61.6128 126.687 61.3356C126.687 61.0585 126.553 60.7813 125.613 60.6428C124.674 60.5042 124.137 60.0885 124.137 59.2571C124.137 58.4256 124.808 57.8714 125.747 57.8714C126.326 57.8843 126.887 58.0775 127.358 58.4256L126.955 59.1185C126.61 58.8214 126.192 58.6294 125.747 58.5642C125.211 58.5642 124.942 58.8414 124.942 59.1185C124.942 59.5342 125.211 59.6728 126.016 59.8114C126.821 59.9499 127.492 60.3656 127.492 61.1971C127.492 62.0285 126.821 62.5828 125.882 62.5828C125.518 62.6146 125.152 62.5696 124.806 62.4505C124.46 62.3313 124.141 62.1406 123.869 61.8899Z" fill="#BD1714"/>
<path d="M130.176 57.8714H130.981V62.5828H130.176V57.8714Z" fill="#BD1714"/>
<path d="M134.068 57.8714H135.813C136.125 57.8439 136.44 57.8849 136.736 57.9917C137.032 58.0985 137.303 58.2687 137.531 58.491C137.759 58.7134 137.939 58.983 138.059 59.2822C138.179 59.5813 138.237 59.9033 138.228 60.2271C138.237 60.5508 138.179 60.8728 138.059 61.172C137.939 61.4711 137.759 61.7407 137.531 61.9631C137.303 62.1855 137.032 62.3556 136.736 62.4624C136.44 62.5692 136.125 62.6102 135.813 62.5828H134.068V57.8714ZM134.873 58.7028V61.8899H135.813C136.026 61.8976 136.239 61.8599 136.438 61.7791C136.636 61.6983 136.817 61.5761 136.968 61.4201C137.119 61.2641 137.237 61.0777 137.316 60.8724C137.394 60.6672 137.43 60.4475 137.423 60.2271C137.43 60.0066 137.394 59.7869 137.316 59.5817C137.237 59.3764 137.119 59.19 136.968 59.034C136.817 58.878 136.636 58.7558 136.438 58.675C136.239 58.5942 136.026 58.5565 135.813 58.5642H134.873V58.7028Z" fill="#BD1714"/>
<path d="M142.388 57.8714H143.193L145.207 62.5828H144.401L143.999 61.4742H141.851L141.315 62.5828H140.509L142.388 57.8714ZM143.596 60.7813L142.791 58.8414L141.986 60.7813H143.596Z" fill="#BD1714"/>
<path d="M147.756 57.8714H149.501C149.813 57.8439 150.128 57.8849 150.424 57.9917C150.72 58.0985 150.991 58.2687 151.219 58.491C151.447 58.7134 151.627 58.983 151.748 59.2822C151.868 59.5813 151.925 59.9033 151.917 60.2271C151.925 60.5508 151.868 60.8728 151.748 61.172C151.627 61.4711 151.447 61.7407 151.219 61.9631C150.991 62.1855 150.72 62.3556 150.424 62.4624C150.128 62.5692 149.813 62.6102 149.501 62.5828H147.756V57.8714ZM148.562 58.7028V61.8899H149.501C149.714 61.8976 149.927 61.8599 150.126 61.7791C150.325 61.6983 150.505 61.5761 150.656 61.4201C150.807 61.2641 150.926 61.0777 151.004 60.8724C151.082 60.6672 151.119 60.4475 151.111 60.2271C151.119 60.0066 151.082 59.7869 151.004 59.5817C150.926 59.3764 150.807 59.19 150.656 59.034C150.505 58.878 150.325 58.7558 150.126 58.675C149.927 58.5942 149.714 58.5565 149.501 58.5642H148.562V58.7028Z" fill="#BD1714"/>
<path d="M158.492 57.8714H160.237C160.549 57.8439 160.864 57.8849 161.16 57.9917C161.456 58.0985 161.727 58.2687 161.955 58.491C162.183 58.7134 162.363 58.983 162.483 59.2822C162.604 59.5813 162.661 59.9033 162.653 60.2271C162.661 60.5508 162.604 60.8728 162.483 61.172C162.363 61.4711 162.183 61.7407 161.955 61.9631C161.727 62.1855 161.456 62.3556 161.16 62.4624C160.864 62.5692 160.549 62.6102 160.237 62.5828H158.492V57.8714ZM159.432 58.7028V61.8899H160.371C160.585 61.8976 160.797 61.8599 160.996 61.7791C161.195 61.6983 161.375 61.5761 161.527 61.4201C161.678 61.2641 161.796 61.0777 161.874 60.8724C161.953 60.6672 161.989 60.4475 161.982 60.2271C161.989 60.0066 161.953 59.7869 161.874 59.5817C161.796 59.3764 161.678 59.19 161.527 59.034C161.375 58.878 161.195 58.7558 160.996 58.675C160.797 58.5942 160.585 58.5565 160.371 58.5642H159.432V58.7028Z" fill="#BD1714"/>
<path d="M165.471 57.8714H168.826V58.5642H166.276V59.8113H168.557V60.5042H166.276V61.8899H168.96V62.5828H165.471V57.8714Z" fill="#BD1714"/>
<path d="M86.4261 70.897L86.9629 70.3427C87.1604 70.5325 87.3929 70.6794 87.6465 70.7746C87.9001 70.8699 88.1696 70.9115 88.4391 70.897C88.9759 70.897 89.2443 70.6198 89.2443 70.3427C89.2443 70.0655 89.1101 69.7884 88.1707 69.6498C87.2313 69.5113 86.6945 69.0956 86.6945 68.2641C86.6945 67.4327 87.3655 66.8784 88.3049 66.8784C88.8836 66.8914 89.4449 67.0846 89.9153 67.4327L89.5127 67.987C89.1078 67.7075 88.6506 67.5187 88.1707 67.4327C87.6339 67.4327 87.3655 67.7098 87.3655 67.987C87.3655 68.4027 87.6339 68.5413 88.4391 68.6798C89.2443 68.8184 89.9153 69.2341 89.9153 70.0655C89.9153 70.897 89.2443 71.4513 88.3049 71.4513C87.9716 71.4999 87.6321 71.4758 87.3085 71.3803C86.9848 71.2848 86.6842 71.1201 86.4261 70.897Z" fill="#BD1714"/>
<path d="M94.344 66.8784H95.1492L97.1622 71.5898H96.2228L95.8202 70.4813H93.673L93.1361 71.5898H92.3309L94.344 66.8784ZM95.5518 69.7884L94.7466 67.8484L93.9414 69.7884H95.5518Z" fill="#BD1714"/>
<path d="M99.712 66.8784H100.517L102.933 70.2041V66.8784H103.738V71.5898H103.067L100.517 68.2641V71.5898H99.712V66.8784Z" fill="#BD1714"/>
<path d="M110.582 66.8784H111.388L112.73 69.0956L114.072 66.8784H114.877V71.5898H114.072V68.1256L112.595 70.3427L111.119 68.1256V71.5898H110.314V66.8784H110.582Z" fill="#BD1714"/>
<path d="M119.708 66.8784H120.513L122.526 71.5898H121.721L121.319 70.4813H119.037L118.5 71.5898H117.695L119.708 66.8784ZM120.916 69.7884L120.111 67.8484L119.306 69.7884H120.916Z" fill="#BD1714"/>
<path d="M125.21 66.8784H127.223C127.705 66.8453 128.181 66.993 128.565 67.2941C128.696 67.4162 128.8 67.5661 128.87 67.7335C128.939 67.901 128.973 68.082 128.968 68.2641C129.002 68.5945 128.908 68.9255 128.707 69.185C128.506 69.4444 128.214 69.6115 127.894 69.6498L129.102 71.4512H128.163L127.089 69.7884H126.016V71.5898H125.21V66.8784ZM127.089 69.2341C127.626 69.2341 128.029 68.957 128.029 68.4027C128.029 67.8484 127.626 67.5712 127.089 67.5712H125.881V69.0955H127.089V69.2341Z" fill="#BD1714"/>
<path d="M132.86 67.7098H131.384V66.8784H135.141V67.7098H133.665V71.5898H132.86V67.7098Z" fill="#BD1714"/>
<path d="M137.826 66.8784H138.631V71.5898H137.826V66.8784ZM138.631 65.4927L139.302 65.7698L138.497 66.4627H137.826L138.631 65.4927Z" fill="#BD1714"/>
<path d="M141.717 66.8784H142.522L144.938 70.2041V66.8784H145.743V71.5898H145.072L142.522 68.2641V71.5898H141.717V66.8784Z" fill="#BD1714"/>
<path d="M152.588 66.8784H154.332C154.645 66.851 154.959 66.892 155.255 66.9988C155.552 67.1055 155.822 67.2757 156.051 67.4981C156.279 67.7204 156.459 67.99 156.579 68.2892C156.699 68.5884 156.756 68.9103 156.748 69.2341C156.756 69.5578 156.699 69.8798 156.579 70.179C156.459 70.4782 156.279 70.7477 156.051 70.9701C155.822 71.1925 155.552 71.3626 155.255 71.4694C154.959 71.5762 154.645 71.6172 154.332 71.5898H152.588V66.8784ZM153.393 67.5712V70.7584H154.332C154.546 70.7661 154.758 70.7284 154.957 70.6476C155.156 70.5667 155.337 70.4445 155.488 70.2886C155.639 70.1326 155.757 69.9462 155.835 69.7409C155.914 69.5357 155.95 69.316 155.943 69.0955C155.95 68.8751 155.914 68.6554 155.835 68.4501C155.757 68.2449 155.639 68.0585 155.488 67.9025C155.337 67.7465 155.156 67.6243 154.957 67.5435C154.758 67.4627 154.546 67.4249 154.332 67.4327H153.393V67.5712Z" fill="#BD1714"/>
<path d="M159.566 66.8784H162.921V67.5713H160.371V68.8184H162.653V69.5113H160.371V70.7584H163.055V71.5898H159.566V66.8784Z" fill="#BD1714"/>
<path d="M169.631 66.8785H171.51C171.723 66.8536 171.938 66.8739 172.143 66.9381C172.348 67.0023 172.538 67.109 172.701 67.2518C172.864 67.3945 172.998 67.5703 173.093 67.7682C173.188 67.9661 173.243 68.1821 173.255 68.4027C173.255 69.5113 172.449 70.0656 171.376 70.0656H170.436V71.5899H169.631V66.8785ZM171.376 69.3727C172.047 69.3727 172.315 68.957 172.315 68.5413C172.315 67.987 171.913 67.7099 171.376 67.7099H170.436V69.3727H171.376Z" fill="#BD1714"/>
<path d="M175.67 69.2342C175.67 68.5727 175.925 67.9383 176.378 67.4705C176.831 67.0027 177.445 66.7399 178.086 66.7399C178.727 66.7399 179.341 67.0027 179.794 67.4705C180.247 67.9383 180.502 68.5727 180.502 69.2342C180.515 69.5654 180.461 69.8959 180.345 70.2047C180.228 70.5135 180.05 70.794 179.823 71.0284C179.596 71.2628 179.325 71.446 179.026 71.5665C178.727 71.687 178.407 71.7422 178.086 71.7285C177.452 71.7077 176.849 71.4382 176.4 70.9749C175.951 70.5115 175.69 69.8891 175.67 69.2342ZM179.562 69.2342C179.562 68.7932 179.392 68.3702 179.09 68.0584C178.788 67.7466 178.379 67.5714 177.952 67.5714C177.525 67.5714 177.115 67.7466 176.813 68.0584C176.511 68.3702 176.341 68.7932 176.341 69.2342C176.334 69.4547 176.37 69.6743 176.449 69.8796C176.527 70.0848 176.645 70.2713 176.796 70.4272C176.947 70.5832 177.128 70.7054 177.327 70.7863C177.525 70.8671 177.738 70.9048 177.952 70.8971C178.377 70.8899 178.782 70.7124 179.083 70.4021C179.383 70.0918 179.555 69.673 179.562 69.2342Z" fill="#BD1714"/>
<path d="M183.186 66.8784H185.199C185.68 66.8453 186.157 66.993 186.541 67.2941C186.672 67.4162 186.776 67.5661 186.845 67.7335C186.915 67.901 186.948 68.082 186.943 68.2641C186.977 68.5945 186.884 68.9255 186.683 69.185C186.481 69.4444 186.189 69.6115 185.87 69.6498L187.078 71.4512H186.138L185.064 69.7884H183.991V71.5898H183.186V66.8784ZM185.199 69.2341C185.735 69.2341 186.138 68.957 186.138 68.4027C186.138 67.8484 185.735 67.5712 185.199 67.5712H183.991V69.0955H185.199V69.2341Z" fill="#BD1714"/>
<path d="M189.896 66.8784H191.909C192.39 66.8453 192.867 66.993 193.251 67.2941C193.382 67.4162 193.486 67.5661 193.555 67.7335C193.625 67.901 193.658 68.082 193.653 68.2641C193.687 68.5945 193.594 68.9255 193.393 69.185C193.192 69.4444 192.9 69.6115 192.58 69.6498L193.788 71.4512H192.848L191.775 69.7884H190.701V71.5898H189.896V66.8784ZM191.775 69.2341C192.311 69.2341 192.714 68.957 192.714 68.4027C192.714 67.8484 192.311 67.5712 191.775 67.5712H190.567V69.0955H191.775V69.2341Z" fill="#BD1714"/>
<path d="M196.472 66.8784H199.827V67.5713H197.277V68.8184H199.558V69.5113H197.277V70.7584H199.961V71.5898H196.472V66.8784Z" fill="#BD1714"/>
<path d="M202.377 70.897L202.913 70.3427C203.111 70.5325 203.343 70.6794 203.597 70.7746C203.851 70.8699 204.12 70.9115 204.39 70.897C204.926 70.897 205.195 70.6198 205.195 70.3427C205.195 70.0655 205.061 69.7884 204.121 69.6498C203.182 69.5113 202.645 69.0956 202.645 68.2641C202.645 67.4327 203.316 66.8784 204.255 66.8784C204.834 66.8914 205.395 67.0846 205.866 67.4327L205.463 68.1256C205.118 67.8285 204.7 67.6365 204.255 67.5713C203.719 67.5713 203.45 67.8484 203.45 68.1256C203.45 68.5413 203.719 68.6798 204.524 68.8184C205.329 68.957 206 69.3727 206 70.2041C206 71.0355 205.329 71.5898 204.39 71.5898C203.663 71.5939 202.955 71.3504 202.377 70.897Z" fill="#BD1714"/>
<path d="M90.1837 21.1501V38.4714C90.1956 39.4098 90.3311 40.3421 90.5863 41.2428C90.8507 42.1812 91.2585 43.07 91.7941 43.8757C92.3404 44.6985 93.079 45.3658 93.9414 45.8157C94.9806 46.362 96.1302 46.6468 97.2964 46.6468C98.4626 46.6468 99.6122 46.362 100.651 45.8157C101.481 45.3176 102.21 44.6589 102.799 43.8757C103.334 43.07 103.742 42.1812 104.006 41.2428C104.262 40.3421 104.397 39.4098 104.409 38.4714V21.1501H108.167V39.0257C108.184 40.5892 107.911 42.1416 107.362 43.5985C106.809 44.9269 106.037 46.146 105.08 47.2014C104.081 48.2196 102.895 49.0207 101.591 49.5571C100.227 50.1246 98.767 50.4072 97.2964 50.3885C95.8269 50.3942 94.3696 50.1121 93.0019 49.5571C91.7154 48.9866 90.5347 48.1895 89.5127 47.2014C88.5265 46.17 87.7507 44.9449 87.2313 43.5985C86.6817 42.1416 86.4084 40.5892 86.426 39.0257V21.1501H90.1837Z" fill="#BD1714"/>
<path d="M136.483 41.7972C136.559 40.5016 136.254 39.2126 135.607 38.0996C134.961 36.9866 134.003 36.1018 132.86 35.5615C131.806 34.9809 130.676 34.5608 129.505 34.3144C128.4 34.0498 127.322 33.6787 126.284 33.2058C125.35 32.866 124.485 32.3491 123.734 31.6815C123.397 31.3427 123.138 30.9305 122.976 30.4749C122.813 30.0194 122.751 29.5321 122.795 29.0487C122.832 28.5776 122.922 28.1126 123.063 27.663C123.229 27.1452 123.504 26.672 123.868 26.2773C124.301 25.7971 124.861 25.4596 125.479 25.3073C127.279 24.6673 129.249 24.7665 130.981 25.5844C131.797 25.9867 132.492 26.6091 132.994 27.3858L136.215 24.4758C135.259 23.3088 134.003 22.4442 132.591 21.9816C131.283 21.5935 129.926 21.4067 128.565 21.4273H128.163C126.69 21.3817 125.225 21.6653 123.868 22.2587C122.774 22.7063 121.772 23.3647 120.916 24.1987C120.171 24.8653 119.615 25.7271 119.305 26.693C118.949 27.5217 118.766 28.4189 118.769 29.3258C118.717 30.5063 118.899 31.6852 119.305 32.7901L119.708 33.6215C120.312 34.6859 121.196 35.551 122.258 36.1158C123.299 36.7884 124.429 37.3019 125.613 37.6401C126.821 38.0558 127.894 38.3329 128.834 38.7486C129.737 39.0971 130.594 39.5627 131.384 40.1343C131.706 40.4251 131.959 40.7892 132.122 41.198C132.285 41.6068 132.354 42.0491 132.323 42.49C132.352 43.1797 132.164 43.8605 131.786 44.43C131.483 45.0201 131.016 45.5028 130.444 45.8157C129.933 46.2296 129.336 46.5144 128.7 46.6472C128.083 46.7978 127.454 46.8905 126.821 46.9243C125.716 46.8946 124.625 46.6599 123.6 46.2314C122.553 45.774 121.665 45.0013 121.05 44.0143L117.829 46.7857C118.86 48.0877 120.201 49.0905 121.721 49.6957C122.921 50.184 124.19 50.4649 125.479 50.5271H126.821C128.094 50.557 129.364 50.3697 130.578 49.9729C131.138 49.8016 131.677 49.5693 132.189 49.28C132.7 48.9884 133.193 48.6645 133.665 48.31C134.553 47.5771 135.245 46.6235 135.678 45.5386C136.213 44.369 136.488 43.0907 136.483 41.7972Z" fill="#BD1714"/>
<path d="M146.951 21.1501H152.588L161.445 43.0442H161.579L170.436 21.1501H176.073V50.3885H172.315V26.2772H172.181L162.653 50.3885H160.371L150.843 26.2772H150.709V50.3885H146.951V21.1501Z" fill="#BD1714"/>
<path d="M187.077 21.1501H196.874C198.377 21.1339 199.872 21.3678 201.303 21.843C202.336 22.2557 203.257 22.9215 203.987 23.783C204.613 24.5499 205.071 25.4482 205.329 26.4158C205.865 28.2219 205.865 30.1526 205.329 31.9586C205.071 32.9262 204.613 33.8246 203.987 34.5915C203.23 35.4212 202.317 36.0816 201.303 36.5315C199.888 37.0739 198.381 37.3097 196.874 37.2243H190.835V50.25H187.077V21.1501ZM190.969 33.8986H195.935C196.653 33.9216 197.372 33.8752 198.082 33.7601C198.75 33.6769 199.392 33.4401 199.961 33.0672C200.532 32.7543 201 32.2716 201.303 31.6815C201.715 30.9733 201.903 30.1496 201.839 29.3258C201.903 28.502 201.715 27.6783 201.303 26.9701C200.962 26.41 200.503 25.9364 199.961 25.5844C199.366 25.2709 198.734 25.038 198.082 24.8915C197.372 24.7764 196.653 24.73 195.935 24.753H190.969V33.8986Z" fill="#BD1714"/>
<path d="M0 18.9329V17.9629C0 17.9262 0.0141393 17.891 0.039307 17.865C0.0644748 17.839 0.0986095 17.8244 0.134202 17.8244L5.90488 16.5772C5.94048 16.5772 5.97461 16.5918 5.99978 16.6178C6.02495 16.6438 6.03909 16.6791 6.03909 16.7158V17.6858C6.03909 17.704 6.03561 17.722 6.02887 17.7388C6.02213 17.7556 6.01224 17.7709 5.99978 17.7838C5.98732 17.7967 5.97252 17.8069 5.95624 17.8138C5.93996 17.8208 5.92251 17.8244 5.90488 17.8244L2.14723 18.5172L5.90488 19.0715C5.94048 19.0715 5.97461 19.0861 5.99978 19.1121C6.02495 19.1381 6.03909 19.1733 6.03909 19.2101V20.1801C6.03909 20.2168 6.02495 20.2521 5.99978 20.2781C5.97461 20.3041 5.94048 20.3187 5.90488 20.3187L0 18.9329Z" fill="#BD1714"/>
<path d="M0.134202 25.3073H5.90488C5.92251 25.3073 5.93996 25.3108 5.95624 25.3178C5.97252 25.3248 5.98732 25.335 5.99978 25.3479C6.01224 25.3607 6.02212 25.376 6.02887 25.3928C6.03561 25.4096 6.03908 25.4276 6.03908 25.4458V28.0787C6.03908 28.1154 6.02495 28.1507 5.99978 28.1767C5.97461 28.2027 5.94047 28.2173 5.90488 28.2173H4.96547C4.92988 28.2173 4.89574 28.2027 4.87057 28.1767C4.84541 28.1507 4.83127 28.1154 4.83127 28.0787V26.5544H3.62345V27.9401C3.62345 27.9769 3.60931 28.0121 3.58414 28.0381C3.55898 28.0641 3.52484 28.0787 3.48925 28.0787H2.54984C2.51424 28.0787 2.48011 28.0641 2.45494 28.0381C2.42977 28.0121 2.41563 27.9769 2.41563 27.9401V26.5544H1.07361V28.0787C1.07361 28.1154 1.05948 28.1507 1.03431 28.1767C1.00914 28.2027 0.975006 28.2173 0.939413 28.2173H0.134202C0.0986095 28.2173 0.0644748 28.2027 0.039307 28.1767C0.0141393 28.1507 0 28.1154 0 28.0787L0.134202 25.3073C1.89978e-07 25.4458 1.89978e-07 25.3073 0.134202 25.3073Z" fill="#BD1714"/>
<path d="M0 36.9472V35.8386C0 35.8019 0.0141393 35.7666 0.039307 35.7406C0.0644748 35.7146 0.0986095 35.7 0.134202 35.7L2.28143 35.0072V34.73H0.134202C0.0986095 34.73 0.0644748 34.7154 0.039307 34.6895C0.0141393 34.6635 0 34.6282 0 34.5915V33.6215C0 33.5847 0.0141393 33.5495 0.039307 33.5235C0.0644748 33.4975 0.0986095 33.4829 0.134202 33.4829H5.90488C5.94047 33.4829 5.97461 33.4975 5.99978 33.5235C6.02495 33.5495 6.03908 33.5847 6.03908 33.6215V35.1458C6.03908 36.3929 5.36808 36.9472 4.16026 36.9472C3.87811 36.9649 3.59606 36.911 3.33873 36.7903C3.0814 36.6695 2.85662 36.4855 2.68404 36.2543L0 36.9472ZM3.35505 34.8686C3.35505 35.1458 3.35505 35.2843 3.48925 35.4229C3.62345 35.5615 3.75765 35.5615 4.16026 35.5615C4.39274 35.5976 4.63014 35.5486 4.83127 35.4229C4.83127 35.2843 4.96547 35.1458 4.96547 34.8686V34.5915H3.48925V34.8686H3.35505Z" fill="#BD1714"/>
<path d="M0.134202 42.0742H5.90488C5.92251 42.0742 5.93996 42.0778 5.95624 42.0848C5.97252 42.0918 5.98732 42.102 5.99978 42.1148C6.01224 42.1277 6.02213 42.143 6.02887 42.1598C6.03561 42.1766 6.03909 42.1946 6.03909 42.2128V43.1828C6.03909 43.201 6.03561 43.219 6.02887 43.2358C6.02213 43.2527 6.01224 43.2679 5.99978 43.2808C5.98732 43.2937 5.97252 43.3039 5.95624 43.3108C5.93996 43.3178 5.92251 43.3214 5.90488 43.3214H0.134202C0.116578 43.3214 0.0991274 43.3178 0.0828453 43.3108C0.0665632 43.3039 0.0517688 43.2937 0.039307 43.2808C0.0268452 43.2679 0.0169597 43.2527 0.0102154 43.2358C0.00347116 43.219 0 43.201 0 43.1828L0.134202 42.0742Z" fill="#BD1714"/>
<path d="M0 50.6657V49.6957C0 49.6589 0.0141393 49.6237 0.039307 49.5977C0.0644748 49.5717 0.0986095 49.5571 0.134202 49.5571L4.83127 49.4185V48.4485C4.83127 48.4118 4.84541 48.3765 4.87057 48.3505C4.89574 48.3245 4.92988 48.3099 4.96547 48.3099H5.77068C5.80627 48.3099 5.84041 48.3245 5.86558 48.3505C5.89074 48.3765 5.90488 48.4118 5.90488 48.4485L6.03908 51.6356C6.03908 51.6724 6.02495 51.7076 5.99978 51.7336C5.97461 51.7596 5.94047 51.7742 5.90488 51.7742H5.09967C5.06408 51.7742 5.02994 51.7596 5.00478 51.7336C4.97961 51.7076 4.96547 51.6724 4.96547 51.6356V50.6657H0Z" fill="#BD1714"/>
<path d="M1.34204 57.4556L7.11272 56.0699H7.24692L7.64953 57.0399V57.1785L2.95246 60.9199H2.81826L2.41566 59.9499V59.8113L3.35507 59.1185L2.81826 58.0099L1.74465 58.2871H1.61044L1.34204 57.4556ZM3.75767 58.0099L4.16028 58.7028L5.9049 57.4556L3.75767 58.0099Z" fill="#BD1714"/>
<path d="M10.1994 66.8784C9.89841 67.2616 9.46566 67.5098 8.99156 67.5713C8.76399 67.5706 8.53904 67.521 8.33108 67.4256C8.12312 67.3301 7.93671 67.191 7.78375 67.017C7.58955 66.8927 7.42928 66.7193 7.31815 66.5132C7.20701 66.307 7.14868 66.075 7.14868 65.8391C7.14868 65.6032 7.20701 65.3712 7.31815 65.1651C7.42928 64.959 7.58955 64.7855 7.78375 64.6613H7.91795L8.72316 65.2156V65.3541C8.58896 65.6313 8.45476 65.7698 8.45476 65.9084C8.44329 65.9839 8.44926 66.0611 8.47219 66.1338C8.49511 66.2064 8.53433 66.2725 8.58666 66.3265C8.63899 66.3805 8.70294 66.421 8.77331 66.4447C8.84367 66.4684 8.91845 66.4745 8.99156 66.4627C9.12577 66.4627 9.25997 66.3241 9.39417 66.1855C9.54086 66.0476 9.635 65.8601 9.65961 65.6569C9.68421 65.4536 9.63767 65.2479 9.52837 65.077L9.39417 64.6613C9.22478 64.3195 9.17727 63.927 9.25997 63.5527C9.33212 63.1777 9.52056 62.8373 9.79678 62.5827C9.92351 62.3977 10.0889 62.2444 10.2808 62.1344C10.4727 62.0243 10.6861 61.9603 10.9052 61.947C11.1243 61.9337 11.3435 61.9714 11.5466 62.0575C11.7496 62.1436 11.9313 62.2757 12.0782 62.4441C12.2531 62.5621 12.399 62.7206 12.5041 62.907C12.6093 63.0934 12.6708 63.3026 12.6839 63.5179C12.6969 63.7333 12.6611 63.9487 12.5792 64.1472C12.4974 64.3457 12.3718 64.5217 12.2124 64.6613H12.0782L11.273 64.107V63.9684C11.3872 63.8687 11.4633 63.7304 11.4879 63.5781C11.5125 63.4259 11.4839 63.2695 11.4072 63.137C11.1388 62.8598 11.0046 62.9984 10.602 63.2756C10.1994 63.5527 10.3336 63.6913 10.3336 63.8298C10.328 64.0238 10.3744 64.2157 10.4678 64.3841L10.602 64.7998C10.7714 65.1416 10.8189 65.5341 10.7362 65.9084C10.7362 66.1855 10.4678 66.4627 10.1994 66.8784Z" fill="#BD1714"/>
<path d="M18.5199 75.4699L21.4723 70.3428H21.6065L22.4118 70.8971V71.0356L19.9961 75.3313V75.4699L21.3381 76.3013V76.4399L20.9355 77.2713H20.8013L18.5199 75.4699Z" fill="#BD1714"/>
<path d="M25.6326 79.4885L28.0482 74.0842C28.0482 74.0842 28.0482 73.9456 28.1824 74.0842L29.1218 74.4999C29.1218 74.4999 29.256 74.4999 29.1218 74.6385L26.7062 80.0427C26.7062 80.0427 26.7062 80.1813 26.572 80.0427L25.6326 79.4885Z" fill="#BD1714"/>
<path d="M32.6111 82.2598L33.1479 76.3012C33.1479 76.2645 33.162 76.2292 33.1872 76.2032C33.2124 76.1773 33.2465 76.1627 33.2821 76.1627L34.7583 76.3012C34.9852 76.3059 35.209 76.3574 35.4164 76.4526C35.6238 76.5477 35.8107 76.6847 35.9661 76.8555C36.2345 77.1327 36.2345 77.5484 36.2345 78.1027C36.2759 78.3769 36.2161 78.6571 36.067 78.888C35.9179 79.1189 35.6904 79.2837 35.4293 79.3498C35.9661 79.4884 36.1003 80.0426 36.1003 80.8741C36.1094 81.1309 36.0663 81.3869 35.9739 81.6255C35.8814 81.8642 35.7416 82.0802 35.5635 82.2598C35.1613 82.5112 34.6865 82.6092 34.2215 82.5369L32.6111 82.2598ZM33.8189 81.4284L34.0873 81.5669C34.3557 81.5669 34.4899 81.5669 34.6241 81.4284C34.7583 81.2898 34.7583 81.1512 34.8925 80.7355C34.9275 80.4955 34.88 80.2503 34.7583 80.0426C34.6241 79.9041 34.4899 79.9041 34.2215 79.7655H33.9531L33.8189 81.4284ZM34.0873 78.7955H34.3557C34.6241 78.7955 34.7583 78.7955 34.8925 78.6569C35.0267 78.5184 35.0267 78.3798 35.0267 78.1027V77.5484C34.9737 77.496 34.9101 77.4564 34.8405 77.4324C34.7709 77.4085 34.697 77.4007 34.6241 77.4098H34.3557L34.0873 78.7955Z" fill="#BD1714"/>
<path d="M42.4078 81.0127L40.1263 75.4699V75.3313L42.542 74.3613H42.6762L43.0788 75.1928V75.3313L41.7368 75.8856V76.0242L42.2736 77.2713H42.4078L43.6156 76.717H43.7498L44.1524 77.5485V77.687L42.542 78.2413V78.3799L43.0788 79.627H43.213L44.555 79.0727H44.6892L45.0918 79.9042V80.0427L42.4078 81.0127Z" fill="#BD1714"/>
<path d="M52.7414 75.6084L51.802 76.1627H51.6678L49.9231 74.4998L49.6547 74.6384V74.777L50.7283 76.717V76.8555L49.9231 77.4098H49.7889L46.8365 72.2827V72.1441L48.0443 71.4513C48.2372 71.2987 48.4619 71.1944 48.7005 71.1467C48.9391 71.099 49.1851 71.1091 49.4193 71.1763C49.6535 71.2434 49.8693 71.3658 50.0499 71.5338C50.2305 71.7017 50.3709 71.9106 50.4599 72.1441C50.6397 72.3762 50.7484 72.6583 50.7723 72.9545C50.7962 73.2506 50.7342 73.5474 50.5941 73.807L52.7414 75.6084ZM49.3863 73.6684L49.7889 73.2527C49.7979 73.014 49.7519 72.7766 49.6547 72.5598C49.5543 72.3513 49.4179 72.1635 49.2521 72.0056C49.0642 71.9998 48.8785 72.0477 48.7153 72.1441L48.4469 72.2827V72.4213L49.2521 73.807H49.3863V73.6684Z" fill="#BD1714"/>
<path d="M57.0359 72.5598L54.4861 67.017V66.8784L55.2913 66.1856H55.4255L59.9884 70.2041V70.3427L59.1832 70.897H59.0489L58.2437 70.2041L57.3043 70.897L57.8411 71.867V72.0056L57.0359 72.5598ZM56.9017 70.0656L57.5727 69.5113L55.9623 68.1256L56.9017 70.0656Z" fill="#BD1714"/>
<path d="M64.0143 66.4627L59.7198 62.4442V62.3056L60.7935 61.1971C61.0672 60.8498 61.4448 60.6061 61.8671 60.5042C62.0754 60.5042 62.2809 60.5543 62.4673 60.6505C62.6536 60.7467 62.8157 60.8864 62.9407 61.0585C63.1614 61.2004 63.3324 61.4113 63.429 61.6605C63.5255 61.9098 63.5425 62.1843 63.4775 62.4442C63.8801 62.1671 64.4169 62.3056 64.9537 62.8599C65.159 62.9918 65.3283 63.1755 65.4457 63.3937C65.5631 63.6119 65.6247 63.8574 65.6247 64.107C65.6247 64.3567 65.5631 64.6022 65.4457 64.8204C65.3283 65.0386 65.159 65.2223 64.9537 65.3542L64.0143 66.4627ZM62.2697 63.137L62.4039 62.9985C62.5381 62.8599 62.6723 62.7213 62.6723 62.5828C62.6723 62.4442 62.5381 62.3056 62.2697 62.0285C62.0013 61.7513 61.8671 61.7513 61.7329 61.7513C61.5987 61.7513 61.4645 61.8899 61.3303 62.0285L61.1961 62.1671V62.3056L62.2697 63.137ZM64.1485 64.9385L64.4169 64.7999C64.5582 64.6471 64.6517 64.454 64.6853 64.2456C64.6853 64.107 64.5511 63.9685 64.2827 63.6913C64.1093 63.4805 63.8735 63.3344 63.6117 63.2756C63.4775 63.2756 63.3433 63.4142 63.0749 63.5528L62.9407 63.6913V63.8299L64.1485 64.9385Z" fill="#BD1714"/>
<path d="M69.3824 58.4257L64.0144 56.2086C64.0144 56.2086 63.8802 56.2086 64.0144 56.07L64.417 55.1C64.417 55.1 64.417 54.9614 64.5512 55.1L69.9192 57.3171C69.9192 57.3171 70.0534 57.3171 69.9192 57.4557L69.3824 58.4257Z" fill="#BD1714"/>
<path d="M71.2612 48.8642V49.8342C71.2612 49.871 71.2471 49.9062 71.2219 49.9322C71.1967 49.9582 71.1626 49.9728 71.127 49.9728H66.2957V50.9428C66.2957 50.9795 66.2816 51.0148 66.2564 51.0408C66.2312 51.0668 66.1971 51.0814 66.1615 51.0814H65.3563C65.3207 51.0814 65.2866 51.0668 65.2614 51.0408C65.2362 51.0148 65.2221 50.9795 65.2221 50.9428V47.7556C65.2221 47.7189 65.2362 47.6837 65.2614 47.6577C65.2866 47.6317 65.3207 47.6171 65.3563 47.6171H66.1615C66.1971 47.6171 66.2312 47.6317 66.2564 47.6577C66.2816 47.6837 66.2957 47.7189 66.2957 47.7556V48.7256L71.2612 48.8642Z" fill="#BD1714"/>
<path d="M71.2612 34.5914V35.5614C71.2612 35.5982 71.2471 35.6334 71.2219 35.6594C71.1967 35.6854 71.1626 35.7 71.127 35.7L65.3563 36.8086C65.3207 36.8086 65.2866 36.794 65.2614 36.768C65.2362 36.742 65.2221 36.7068 65.2221 36.67V35.7C65.2221 35.6633 65.2362 35.628 65.2614 35.602C65.2866 35.576 65.3207 35.5614 65.3563 35.5614L69.114 34.8686L65.3563 34.4529C65.3207 34.4529 65.2866 34.4383 65.2614 34.4123C65.2362 34.3863 65.2221 34.3511 65.2221 34.3143V33.3443C65.2221 33.3076 65.2362 33.2723 65.2614 33.2463C65.2866 33.2203 65.3207 33.2057 65.3563 33.2057L71.2612 34.5914Z" fill="#BD1714"/>
<path d="M71.3955 26.6929C71.4357 27.04 71.3474 27.3899 71.1483 27.6726C70.9492 27.9552 70.654 28.1498 70.3219 28.2172C70.1877 28.2172 70.0535 28.3558 69.7851 28.3558H66.8326C66.5642 28.3558 66.43 28.3558 66.2958 28.2172C65.9748 28.1287 65.6929 27.929 65.4974 27.6515C65.302 27.374 65.2048 27.0356 65.2222 26.6929C65.182 26.3459 65.2703 25.996 65.4694 25.7133C65.6685 25.4306 65.9637 25.2361 66.2958 25.1687C66.43 25.1687 66.5642 25.0301 66.8326 25.0301H69.7851C70.0535 25.0301 70.1877 25.0301 70.3219 25.1687C70.654 25.2361 70.9492 25.4306 71.1483 25.7133C71.3474 25.996 71.4357 26.3459 71.3955 26.6929ZM70.3219 26.6929C70.3219 26.4158 70.1877 26.2772 70.0535 26.2772H66.5642C66.43 26.2772 66.2958 26.4158 66.2958 26.6929C66.2958 26.9701 66.43 27.1087 66.5642 27.1087H70.0535C70.1877 26.9701 70.3219 26.8315 70.3219 26.6929Z" fill="#BD1714"/>
<path d="M69.5166 16.5772C69.7558 16.5495 69.9981 16.572 70.2287 16.6434C70.4594 16.7149 70.6736 16.8338 70.8586 16.9929C71.0029 17.1625 71.113 17.3602 71.1821 17.5744C71.2512 17.7886 71.2781 18.015 71.2612 18.2401C71.2926 18.466 71.2727 18.6964 71.2028 18.9129C71.133 19.1295 71.0153 19.3263 70.859 19.4876C70.7027 19.649 70.5121 19.7706 70.3024 19.8427C70.0927 19.9148 69.8696 19.9354 69.6508 19.9029C69.6331 19.9029 69.6157 19.8993 69.5994 19.8924C69.5831 19.8854 69.5683 19.8752 69.5559 19.8623C69.5434 19.8495 69.5335 19.8342 69.5268 19.8174C69.52 19.8006 69.5166 19.7826 69.5166 19.7644L69.3824 18.7944C69.3824 18.7576 69.3965 18.7224 69.4217 18.6964C69.4468 18.6704 69.481 18.6558 69.5166 18.6558C69.785 18.6558 70.0534 18.6558 70.0534 18.5172C70.1405 18.3973 70.1876 18.2514 70.1876 18.1015C70.1876 17.9516 70.1405 17.8057 70.0534 17.6858C69.9192 17.5472 69.785 17.5472 69.5166 17.5472C69.2482 17.5472 69.114 17.5472 68.9798 17.6858C68.8456 17.8244 68.7114 17.9629 68.7114 18.1015L68.5772 18.5172C68.4332 18.8921 68.2029 19.225 67.9061 19.4872C67.5725 19.6605 67.2059 19.7552 66.8325 19.7644C66.6137 19.7968 66.3906 19.7762 66.1809 19.7041C65.9712 19.632 65.7806 19.5105 65.6243 19.3491C65.468 19.1877 65.3503 18.9909 65.2805 18.7744C65.2106 18.5578 65.1907 18.3274 65.2221 18.1015C65.2094 17.8913 65.2379 17.6806 65.3059 17.4821C65.3739 17.2835 65.4799 17.1012 65.6178 16.9459C65.7556 16.7907 65.9223 16.6658 66.108 16.5786C66.2936 16.4914 66.4944 16.4438 66.6983 16.4387C66.7339 16.4387 66.7681 16.4533 66.7932 16.4792C66.8184 16.5052 66.8325 16.5405 66.8325 16.5772L66.9667 17.5472C66.9667 17.584 66.9526 17.6192 66.9274 17.6452C66.9023 17.6712 66.8681 17.6858 66.8325 17.6858C66.4299 17.6858 66.1615 17.8244 66.1615 18.2401C66.1615 18.6558 66.2957 18.6558 66.6983 18.6558C67.1009 18.6558 67.1009 18.6558 67.2351 18.5172C67.3693 18.3786 67.3693 18.2401 67.5035 18.1015L67.6377 17.6858C67.7817 17.3109 68.012 16.978 68.3088 16.7158C68.6979 16.5844 69.109 16.5372 69.5166 16.5772Z" fill="#BD1714"/>
<path d="M38.1133 0.503056L35.5635 3.41304L33.0136 0.503056L33.1479 4.38303L29.3902 4.24446L32.2084 6.87731L29.3902 9.51015L33.1479 9.37158L33.0136 13.2516L35.5635 10.3416L38.1133 13.2516L37.9791 9.23301L41.7368 9.37158L38.9185 6.73874L41.7368 4.10589L37.9791 4.24446L38.1133 0.503056Z" fill="#BD1714"/>
<path d="M60.391 16.8544H10.8704V49.5571C10.8634 51.7024 11.4199 53.8096 12.4809 55.6542C13.3168 56.9767 14.3085 58.1869 15.4333 59.257C16.0849 59.9757 16.8042 60.6256 17.5805 61.197C22.7651 65.6844 28.6693 69.2016 35.0268 71.5898C35.1842 71.7001 35.3744 71.7491 35.5636 71.7284C35.7528 71.7491 35.9429 71.7001 36.1004 71.5898C42.4721 69.2333 48.3815 65.713 53.5467 61.197C54.2177 60.5042 55.0229 59.9499 55.6939 59.257C56.8186 58.1869 57.8104 56.9767 58.6463 55.6542C59.7233 53.8167 60.2811 51.7048 60.2568 49.5571C60.391 47.2014 60.391 16.9929 60.391 16.8544ZM55.2913 53.4371C54.6463 54.4145 53.8792 55.2998 53.0098 56.0699C52.3388 56.7628 51.5336 57.4556 50.8626 58.1485L35.6978 42.3514V67.1556C30.1813 65.0081 25.0546 61.9162 20.533 58.0099L35.6978 42.3514H15.0307V21.0115L35.6978 42.3514V21.0115H56.3649L35.6978 42.3514H56.3649V49.4185C56.3433 50.8304 55.9738 52.2134 55.2913 53.4371Z" fill="#BD1714"/>
</svg>
